# xmcd
#
# Track frame offsets:
#	150
#	29078
#	63027
#	94415
#	115740
#	152098
#
# Disc length: 2631 seconds
#
# Revision: 2
# Processed by: cddbd v1.5.1PL2 Copyright (c) Steve Scherf et al.
# Submitted via: audiograbber 1.83.01
#
DISCID=480a4506
DTITLE=Melvin Taylor - Blues On The Run
DYEAR=1982
DGENRE=Blues
TTITLE0=Travelin' Man
TTITLE1=Lowdown Dirty Shame
TTITLE2=Escape
TTITLE3=Cold, Cold Feeling
TTITLE4=Just Like A Woman
TTITLE5=Chitlins Con Carne
EXTD=
EXTT0=
EXTT1=
EXTT2=
EXTT3=
EXTT4=
EXTT5=
PLAYORDER=
